<?xml version="1.0" standalone="no"?><!DOCTYPE svg PUBLIC "-//W3C//DTD SVG 1.1//EN" "http://www.w3.org/Graphics/SVG/1.1/DTD/svg11.dtd"><svg t="1549685319793" class="icon" style="" viewBox="0 0 1024 1024" version="1.1" xmlns="http://www.w3.org/2000/svg" p-id="2512" xmlns:xlink="http://www.w3.org/1999/xlink" width="16" height="16"><defs><style type="text/css"></style></defs><path d="M892.8 448.2H576.3V131.6c0-35.2-28.8-63.9-63.9-63.9-35.2 0-63.9 28.8-63.9 63.9v316.6H131.8c-35.2 0-63.9 28.8-63.9 63.9 0 35.2 28.8 63.9 63.9 63.9h316.6v316.6c0 35.2 28.8 63.9 63.9 63.9 35.2 0 63.9-28.8 63.9-63.9V576h316.6c35.2 0 63.9-28.8 63.9-63.9 0.1-35.1-28.7-63.9-63.9-63.9z" fill="#2c2c2c" p-id="2513"></path></svg>