<?xml version="1.0" standalone="no"?><!DOCTYPE svg PUBLIC "-//W3C//DTD SVG 1.1//EN" "http://www.w3.org/Graphics/SVG/1.1/DTD/svg11.dtd"><svg class="icon" width="32px" height="32.00px" viewBox="0 0 1024 1024" version="1.1" xmlns="http://www.w3.org/2000/svg"><path fill="#ffffff" d="M697.829529 138.978123c73.740898 43.931081 98.839062 139.633607 54.909938 213.374505L554.270849 687.318316c-29.023237 49.421488-92.567945 65.892708-141.983563 36.867514-49.421488-29.031064-65.896622-92.569902-36.867514-141.987477l158.458697-268.288356c7.05574-12.548104 23.526961-16.469264 35.300224-9.407653 12.548104 7.059653 16.475134 23.528917 9.407654 35.300224l-158.452827 268.286399c-14.901974 24.313541-6.271117 56.477228 18.040467 71.377245 24.323324 14.911757 56.485055 6.2809 71.385071-18.040467l198.468618-334.957861c29.029107-49.419531 12.552017-112.964239-36.867514-141.98552-49.425401-29.023237-112.962283-12.552017-141.987477 36.871428l-237.690002 402.427642c-43.931081 73.733072-18.829004 169.439511 54.909938 213.362765 73.742855 43.934994 169.447337 18.832917 213.372548-54.909938l198.472532-334.955904c7.05574-12.55593 23.528917-16.475134 35.300224-9.419394 12.548104 7.065523 16.475134 23.536744 9.413523 35.306094L604.473047 808.122918c-58.040605 98.846889-185.910731 131.78933-284.75175 72.956275-98.842976-58.046475-131.78933-185.914644-72.954318-284.753706L484.455024 193.899801c43.146458-73.742855 138.852896-98.058352 213.374505-54.915808v-0.00587z"  /></svg>