<?xml version="1.0" encoding="utf-8"?>
<!-- Generator: Adobe Illustrator 23.0.0, SVG Export Plug-In . SVG Version: 6.00 Build 0)  -->
<svg version="1.1" id="图层_1" xmlns="http://www.w3.org/2000/svg" xmlns:xlink="http://www.w3.org/1999/xlink" x="0px" y="0px"
	 viewBox="0 0 32 32" style="enable-background:new 0 0 32 32;" xml:space="preserve">
<style type="text/css">
	.st0{fill:#1D2FE3;}
	.st1{fill:#FFFFFF;}
</style>
<path class="st0" d="M17,29.98h-2.03c-7.14,0-12.99-5.85-12.99-12.99v-2.03c0-7.14,5.85-12.99,12.99-12.99H17
	c7.14,0,12.99,5.85,12.99,12.99v2.03C29.99,24.13,24.15,29.98,17,29.98z"/>
<path class="st1" d="M13.76,15.14c-0.58,0.82-1.56,2.28-3.17,3.38c-1.09,0.75-1.04,2.6-0.58,3.53s1.97,1.63,3.56,1.3
	c1.58-0.34,2.33-0.68,4.29-0.1c1.97,0.57,3.55,0.17,4.2-1.2c0.65-1.37-0.1-2.93-1.32-3.72c-1.22-0.79-2.04-2.16-2.81-3.33
	C17.17,13.82,15.13,13.22,13.76,15.14z"/>
<path class="st1" d="M8.77,13.67c0,1.3,0.83,2.35,1.85,2.35s1.85-1.05,1.85-2.35s-0.83-2.35-1.85-2.35S8.77,12.37,8.77,13.67
	L8.77,13.67z"/>
<path class="st1" d="M12.33,10.02c0,1.3,0.83,2.35,1.85,2.35s1.85-1.05,1.85-2.35s-0.83-2.35-1.85-2.35S12.33,8.72,12.33,10.02z"/>
<path class="st1" d="M16.91,10.38c0,1.3,0.83,2.35,1.85,2.35s1.85-1.05,1.85-2.35s-0.83-2.35-1.85-2.35S16.91,9.08,16.91,10.38
	L16.91,10.38z"/>
<path class="st1" d="M19.55,14.91c0,1.3,0.83,2.35,1.85,2.35s1.85-1.05,1.85-2.35s-0.83-2.35-1.85-2.35S19.55,13.61,19.55,14.91
	L19.55,14.91z"/>
</svg>
