<?xml version="1.0" encoding="utf-8"?>
<!-- Generator: Adobe Illustrator 23.0.0, SVG Export Plug-In . SVG Version: 6.00 Build 0)  -->
<svg version="1.1" id="图层_1" xmlns="http://www.w3.org/2000/svg" xmlns:xlink="http://www.w3.org/1999/xlink" x="0px" y="0px"
	 viewBox="0 0 32 32" style="enable-background:new 0 0 32 32;" xml:space="preserve">
<style type="text/css">
	.st0{fill:#FAFAFC;}
	.st1{fill:#E94235;}
	.st2{fill:#34A753;}
	.st3{fill:#4286F4;}
	.st4{fill:#F9BB05;}
</style>
<path class="st0" d="M17,29.98h-2.03c-7.14,0-12.99-5.85-12.99-12.99v-2.03c0-7.14,5.85-12.99,12.99-12.99H17
	c7.14,0,12.99,5.85,12.99,12.99v2.03C29.99,24.13,24.15,29.98,17,29.98z"/>
<g>
	<path class="st1" d="M6.19,10.92c1.18-2.42,3.02-4.2,5.47-5.22c4.19-1.73,8.14-1.25,11.74,1.61c0.35,0.28,0.34,0.44,0.02,0.74
		c-0.86,0.82-1.69,1.67-2.53,2.51c-0.16,0.17-0.27,0.29-0.53,0.07c-3.26-2.83-8.62-1.6-10.4,2.84c-0.04,0.1-0.1,0.2-0.14,0.29
		c-0.17,0.05-0.28-0.07-0.39-0.15c-1.02-0.75-2-1.53-3-2.3C6.3,11.22,6.18,11.11,6.19,10.92z"/>
	<path class="st2" d="M9.82,18.25c0.51,1.28,1.24,2.4,2.34,3.24c2.23,1.71,5.22,1.9,7.67,0.5c0.11-0.06,0.22-0.12,0.34-0.18
		c0.17,0,0.31,0.09,0.44,0.19c0.92,0.71,1.84,1.44,2.77,2.13c0.14,0.11,0.38,0.19,0.29,0.46c-1.46,1.4-3.23,2.16-5.19,2.52
		c-4.99,0.92-9.95-1.43-12.21-5.78c-0.04-0.08-0.08-0.17-0.11-0.25c0.06-0.27,0.29-0.4,0.49-0.56c0.88-0.71,1.81-1.35,2.68-2.08
		C9.47,18.32,9.62,18.2,9.82,18.25z"/>
	<path class="st3" d="M23.67,24.58c-1.17-0.93-2.34-1.86-3.51-2.78c0.95-0.73,1.67-1.62,2.06-2.77c0.14-0.41,0.08-0.54-0.38-0.53
		c-1.7,0.02-3.4,0-5.1,0.02c-0.38,0-0.55-0.07-0.54-0.5c0.03-1.13,0.03-2.27,0-3.4c-0.01-0.39,0.13-0.5,0.5-0.49
		c3.25,0.01,6.51,0.01,9.76,0.01c0.25,0,0.45,0,0.49,0.35c0.39,3.53-0.24,6.77-2.65,9.51C24.11,24.2,23.89,24.39,23.67,24.58z"/>
	<path class="st4" d="M9.82,18.25c-1.22,0.94-2.44,1.89-3.66,2.83c-1.64-3.39-1.65-6.78,0.03-10.16c1.05,0.83,2.1,1.66,3.16,2.49
		c0.16,0.12,0.32,0.24,0.48,0.36C9.38,15.26,9.38,16.75,9.82,18.25z"/>
</g>
</svg>
