<?xml version="1.0" encoding="utf-8"?>
<!-- Generator: Adobe Illustrator 23.0.0, SVG Export Plug-In . SVG Version: 6.00 Build 0)  -->
<svg version="1.1" id="图层_1" xmlns="http://www.w3.org/2000/svg" xmlns:xlink="http://www.w3.org/1999/xlink" x="0px" y="0px"
	 viewBox="0 0 32 32" style="enable-background:new 0 0 32 32;" xml:space="preserve">
<style type="text/css">
	.st0{fill:#ED4403;}
	.st1{fill:#FFFFFF;}
</style>
<path class="st0" d="M17,29.98h-2.03c-7.14,0-12.99-5.85-12.99-12.99v-2.03c0-7.14,5.85-12.99,12.99-12.99H17
	c7.14,0,12.99,5.85,12.99,12.99v2.03C29.99,24.13,24.15,29.98,17,29.98z"/>
<path class="st1" d="M10.88,15.23c-0.94-0.89-1.04-0.97-2.45-1.95l-1,1.45l1.85,1.09c0,0,1.23,0.6,0.65,1.71
	c-0.56,1.06-3.25,3.37-3.25,3.37l2.42,1.42c1.67-3.41,1.56-2.96,1.99-4.19C11.52,16.88,11.61,15.92,10.88,15.23z"/>
<path class="st1" d="M24.12,12.9c0,0-0.52-3.85-9.47-1.46c0.38-0.62,0.57-1.03,0.57-1.03l-2.23-0.59c0,0-0.9,2.76-2.51,4.05
	c0,0,1.55,0.84,1.54,0.82c0.45-0.42,0.85-0.84,1.2-1.26c0.34-0.14,0.69-0.28,1.03-0.41c-0.41,0.7-1.08,1.75-1.75,2.41l0.94,0.77
	c0,0,0.64-0.58,1.34-1.28h0.8v1.29h-3.12v1.03h3.12v2.47c-0.04,0-0.08,0-0.12,0c-0.34-0.02-0.88-0.07-1.09-0.38
	c-0.26-0.38-0.07-1.07-0.06-1.5h-2.15l-0.08,0.04c0,0-0.78,3.32,2.27,3.24c2.86,0.07,4.5-0.75,5.29-1.32l0.31,1.1l1.76-0.69
	l-1.19-2.75l-1.43,0.42l0.27,0.94c-0.37,0.26-0.8,0.45-1.25,0.59v-2.16h3.04v-1.03h-3.04v-1.29h3.05v-1.03h-5.42
	c0.39-0.45,0.7-0.86,0.78-1.12l-0.94-0.24c4.05-1.36,6.31-1.13,6.29,1.11v5.9c0,0,0.24,2.03-2.23,1.88l-1.33-0.27l-0.31,1.19
	c0,0,5.76,1.55,6.23-2.62C24.71,15.56,24.12,12.9,24.12,12.9z M9.76,12.74c0.88,0,1.59-0.6,1.59-1.34c0-0.74-0.71-1.35-1.59-1.35
	c-0.88,0-1.59,0.6-1.59,1.35C8.17,12.14,8.88,12.74,9.76,12.74z"/>
</svg>
