<?xml version="1.0" encoding="utf-8"?>
<!-- Generator: Adobe Illustrator 23.0.0, SVG Export Plug-In . SVG Version: 6.00 Build 0)  -->
<svg version="1.1" id="图层_1" xmlns="http://www.w3.org/2000/svg" xmlns:xlink="http://www.w3.org/1999/xlink" x="0px" y="0px"
	 viewBox="0 0 300 68" style="enable-background:new 0 0 300 68;" xml:space="preserve">
<style type="text/css">
	.st0{fill:#FFFFFF;}
</style>
<path class="st0" d="M2,62.5V3.7h20c5,0,9.3,1.7,12.9,5c3.6,3.3,5.5,7.5,5.5,12.5c0,4.1-1.3,7.7-4,10.9c-2.7,3.1-6,5.1-10,6
	l-0.2,0.2l16.5,23.9v0.3h-8.9L17.9,38.7H9.5v23.8H2z M9.5,31.6h12.1c3,0,5.6-1,7.8-3c2.2-2,3.2-4.5,3.2-7.5c0-2.6-1-4.9-2.9-7.1
	c-1.9-2.1-4.5-3.2-7.6-3.2H9.5V31.6z"/>
<path class="st0" d="M65.5,63.8c-6.1,0-11-2-14.8-6.1c-3.8-4-5.7-9.2-5.7-15.4c0-5.9,1.8-10.9,5.5-15.1c3.7-4.2,8.4-6.3,14.2-6.3
	c6,0,10.7,1.9,14.3,5.8c3.6,3.9,5.4,9.1,5.4,15.6l-0.1,1.4H52.6c0.2,4.1,1.6,7.3,4.1,9.6c2.5,2.4,5.4,3.5,8.7,3.5
	c5.4,0,9.1-2.3,11-6.9l6.7,2.8c-1.3,3.1-3.5,5.7-6.5,7.8C73.6,62.7,69.9,63.8,65.5,63.8z M76.4,37.5c-0.2-2.3-1.2-4.5-3.2-6.6
	c-1.9-2.1-4.8-3.1-8.7-3.1c-2.8,0-5.2,0.9-7.3,2.6c-2.1,1.8-3.5,4.1-4.2,7.1H76.4z"/>
<path class="st0" d="M107.5,63.1c-4.2,0-7.4-1.1-9.6-3.4c-2.2-2.2-3.3-5.4-3.3-9.5V29.1h-7.1v-6.9h7.1V9.9h7.6v12.3h9.9v6.9h-9.9
	v20.5c0,4.4,1.8,6.6,5.4,6.6c1.4,0,2.5-0.2,3.4-0.7l2.6,6.5C111.9,62.8,109.9,63.1,107.5,63.1z"/>
<path class="st0" d="M126.7,62.5h-7.6V22.2h7.2v6.6h0.3c0.8-2.2,2.3-4,4.7-5.4c2.4-1.4,4.7-2.1,6.9-2.1c2.2,0,4.1,0.3,5.7,1
	l-2.9,7.1c-1-0.4-2.3-0.6-4-0.6c-2.7,0-5.2,1.1-7.3,3.2c-2.1,2.2-3.2,5-3.2,8.5V62.5z"/>
<path class="st0" d="M157.1,12.1c-1,1-2.3,1.6-3.8,1.6c-1.5,0-2.7-0.5-3.8-1.6c-1-1-1.6-2.3-1.6-3.8c0-1.5,0.5-2.7,1.6-3.8
	c1-1,2.3-1.6,3.8-1.6c1.5,0,2.7,0.5,3.8,1.6c1,1,1.6,2.3,1.6,3.8C158.7,9.8,158.2,11.1,157.1,12.1z M157.1,62.5h-7.6V22.2h7.6V62.5z
	"/>
<path class="st0" d="M184.8,63.8c-6.1,0-11-2-14.8-6.1c-3.8-4-5.7-9.2-5.7-15.4c0-5.9,1.8-10.9,5.5-15.1c3.7-4.2,8.4-6.3,14.2-6.3
	c6,0,10.7,1.9,14.3,5.8c3.6,3.9,5.4,9.1,5.4,15.6l-0.1,1.4h-31.8c0.2,4.1,1.6,7.3,4.1,9.6c2.5,2.4,5.4,3.5,8.7,3.5
	c5.4,0,9.1-2.3,11-6.9l6.7,2.8c-1.3,3.1-3.5,5.7-6.5,7.8C192.9,62.7,189.2,63.8,184.8,63.8z M195.6,37.5c-0.2-2.3-1.2-4.5-3.2-6.6
	c-1.9-2.1-4.8-3.1-8.7-3.1c-2.8,0-5.2,0.9-7.3,2.6c-2.1,1.8-3.5,4.1-4.2,7.1H195.6z"/>
<path class="st0" d="M221.7,62.5l-16.3-40.2h8.2l11.8,31.2h0.2l12-31.2h8l-16.4,40.2H221.7z"/>
<path class="st0" d="M262.5,63.8c-4.3,0-7.8-1.2-10.7-3.7s-4.3-5.7-4.3-9.8c0-4.4,1.7-7.8,5.1-10.3c3.4-2.5,7.6-3.7,12.6-3.7
	c4.4,0,8.1,0.8,10.9,2.5v-1.1c0-3-1-5.3-3-7.1c-2-1.8-4.5-2.7-7.5-2.7c-2.2,0-4.2,0.5-6,1.6c-1.8,1-3,2.5-3.7,4.3l-6.9-3
	c0.9-2.4,2.8-4.6,5.5-6.7c2.7-2.1,6.3-3.1,10.8-3.1c5.1,0,9.4,1.5,12.8,4.5c3.4,3,5.1,7.3,5.1,12.7v24.3h-7.2v-5.6h-0.3
	C272.8,61.5,268.3,63.8,262.5,63.8z M263.8,56.9c3.1,0,6-1.2,8.5-3.5c2.5-2.3,3.8-5.1,3.8-8.3c-2.1-1.8-5.3-2.6-9.6-2.6
	c-3.7,0-6.4,0.8-8.3,2.4c-1.9,1.6-2.8,3.4-2.8,5.6c0,2,0.8,3.5,2.5,4.7S261.6,56.9,263.8,56.9z"/>
<path class="st0" d="M299.4,62.5h-7.6V3.7h7.6V62.5z"/>
</svg>
